<svg width="59" height="59" viewBox="0 0 59 59" fill="none" xmlns="http://www.w3.org/2000/svg">
<g clip-path="url(#clip0_12079_73)">
<path d="M16.4765 12.7248C15.4379 11.6861 13.7534 11.6861 12.7147 12.7248C10.6096 14.8298 9.45026 17.6289 9.45026 20.6057C9.45026 23.5824 10.6096 26.3813 12.7147 28.4863C13.7532 29.5248 15.4375 29.5254 16.4765 28.4863C17.5154 27.4474 17.5154 25.7632 16.4765 24.7245C15.3762 23.6242 14.7701 22.1614 14.7701 20.6057C14.7701 19.0499 15.3762 17.5867 16.4765 16.4866C17.5154 15.4477 17.5154 13.7637 16.4765 12.7248Z" fill="white"/>
<path d="M57.0594 47.7459L39.0584 29.7447C42.8634 22.0417 41.5698 12.4392 35.1662 6.03508C31.2744 2.14327 26.0999 0 20.5959 0C15.092 0 9.91742 2.14327 6.0254 6.03508C-2.00847 14.0694 -2.00847 27.1418 6.0254 35.1759C9.91742 39.0677 15.0917 41.211 20.5959 41.211C23.8234 41.211 26.9372 40.473 29.7459 39.0785L47.736 57.0687C50.3108 59.6435 54.4848 59.6435 57.0594 57.0687C59.634 54.4945 59.634 50.3205 57.0594 47.7459ZM9.78719 31.4143C3.82744 25.4543 3.82744 15.7568 9.78719 9.79687C12.6742 6.90988 16.5128 5.31988 20.5959 5.31988C24.679 5.31988 28.5176 6.90988 31.4046 9.79687C41.0313 19.4237 34.1216 35.8913 20.5959 35.8913C16.5128 35.8913 12.6742 34.3013 9.78719 31.4143Z" fill="white"/>
</g>
<defs>
<clipPath id="clip0_12079_73">
<rect width="59" height="59" fill="white"/>
</clipPath>
</defs>
</svg>
