<svg width="55" height="55" viewBox="0 0 55 55" fill="none" xmlns="http://www.w3.org/2000/svg">
<path fill-rule="evenodd" clip-rule="evenodd" d="M27.5 18.9062C22.7538 18.9062 18.9062 22.7538 18.9062 27.5C18.9062 32.2463 22.7538 36.0937 27.5 36.0937C32.2463 36.0937 36.0937 32.2463 36.0937 27.5C36.0937 22.7538 32.2463 18.9062 27.5 18.9062ZM22.3437 27.5C22.3437 24.6524 24.6524 22.3437 27.5 22.3437C30.3476 22.3437 32.6562 24.6524 32.6562 27.5C32.6562 30.3476 30.3476 32.6562 27.5 32.6562C24.6524 32.6562 22.3437 30.3476 22.3437 27.5Z" fill="#9F9F9F"/>
<path fill-rule="evenodd" clip-rule="evenodd" d="M27.442 2.8645C26.4236 2.86448 25.5732 2.86448 24.8751 2.9121C24.1485 2.96169 23.4621 3.06858 22.7966 3.34422C21.2525 3.98384 20.0256 5.21069 19.386 6.75488C19.053 7.5588 18.9628 8.40603 18.9284 9.32691C18.9007 10.0672 18.5271 10.6848 17.9757 11.0032C17.4244 11.3215 16.7027 11.3362 16.0478 10.99C15.2331 10.5594 14.4542 10.2139 13.5915 10.1003C11.9344 9.88211 10.2585 10.3312 8.93246 11.3487C8.36101 11.7872 7.92522 12.3282 7.51896 12.9327C7.12866 13.5134 6.70354 14.2498 6.19426 15.132L6.1364 15.2322C5.6271 16.1143 5.20195 16.8506 4.89415 17.479C4.57375 18.1331 4.32312 18.781 4.22909 19.4952C4.01092 21.1523 4.46 22.8282 5.47747 24.1543C6.00712 24.8443 6.69565 25.3462 7.47583 25.8364C8.10324 26.2306 8.45141 26.8631 8.45137 27.4999C8.45135 28.1365 8.10317 28.769 7.47583 29.1632C6.69556 29.6534 6.00696 30.1553 5.47727 30.8455C4.45977 32.1715 4.01072 33.8474 4.22886 35.5045C4.32289 36.2186 4.57353 36.8666 4.89392 37.5207C5.20172 38.1491 5.62687 38.8854 6.13614 39.7674L6.19403 39.8678C6.70331 40.7499 7.12844 41.4862 7.51873 42.0669C7.925 42.6714 8.36078 43.2125 8.93223 43.6509C10.2583 44.6684 11.9342 45.1176 13.5913 44.8994C14.454 44.7857 15.2327 44.4404 16.0474 44.0098C16.7024 43.6635 17.4242 43.6782 17.9756 43.9967C18.527 44.315 18.9007 44.9326 18.9284 45.6731C18.9628 46.5939 19.053 47.4411 19.386 48.245C20.0256 49.7891 21.2525 51.0161 22.7966 51.6557C23.4621 51.9314 24.1485 52.0382 24.8751 52.0877C25.5732 52.1353 26.4236 52.1353 27.442 52.1353H27.5578C28.5764 52.1353 29.4266 52.1353 30.1249 52.0877C30.8516 52.0382 31.5379 51.9314 32.2034 51.6557C33.7476 51.0161 34.9745 49.7891 35.6141 48.245C35.9471 47.4411 36.0372 46.5939 36.0715 45.6728C36.0993 44.9326 36.4728 44.315 37.0242 43.9965C37.5756 43.6782 38.2974 43.6635 38.9524 44.0095C39.7671 44.4401 40.5458 44.7857 41.4086 44.8992C43.0657 45.1173 44.7416 44.6684 46.0676 43.6509C46.6391 43.2123 47.0747 42.6714 47.4811 42.0669C47.8713 41.4862 48.2964 40.7499 48.8056 39.8678L48.8636 39.7674C49.3728 38.8854 49.7982 38.1488 50.1059 37.5205C50.4263 36.8664 50.6768 36.2186 50.771 35.5045C50.9891 33.8471 50.54 32.1712 49.5225 30.8453C48.9929 30.155 48.3042 29.6534 47.5241 29.1632C46.8967 28.769 46.5486 28.1365 46.5486 27.4997C46.5486 26.8631 46.8967 26.2308 47.5239 25.8366C48.3045 25.3464 48.9931 24.8448 49.5227 24.1543C50.5402 22.8283 50.9894 21.1524 50.7712 19.4953C50.677 18.7812 50.4265 18.1333 50.1062 17.4791C49.7984 16.8508 49.3733 16.1145 48.8639 15.2325L48.8061 15.1322C48.2967 14.2501 47.8716 13.5136 47.4813 12.9329C47.075 12.3283 46.6393 11.7873 46.0678 11.3488C44.7418 10.3313 43.0659 9.88227 41.4086 10.1004C40.546 10.214 39.7673 10.5595 38.9526 10.9901C38.2977 11.3363 37.5758 11.3216 37.0244 11.0032C36.473 10.6849 36.0993 10.0671 36.0715 9.3268C36.0372 8.40594 35.9471 7.55875 35.6141 6.75488C34.9745 5.21069 33.7476 3.98384 32.2034 3.34422C31.5379 3.06858 30.8516 2.96169 30.1249 2.9121C29.4266 2.86448 28.5764 2.86448 27.5578 2.8645H27.442ZM24.112 6.52005C24.2889 6.44681 24.5575 6.37928 25.1091 6.34163C25.6763 6.30294 26.4087 6.302 27.5 6.302C28.5913 6.302 29.3237 6.30294 29.8907 6.34163C30.4425 6.37928 30.7111 6.44681 30.8878 6.52005C31.5897 6.8108 32.1475 7.36845 32.4381 8.07037C32.53 8.29177 32.6059 8.63691 32.6366 9.45527C32.7044 11.2711 33.6417 13.0195 35.3057 13.9802C36.9694 14.9409 38.9524 14.8783 40.5589 14.0292C41.2828 13.6466 41.6199 13.5398 41.8573 13.5085C42.6106 13.4094 43.3723 13.6135 43.975 14.076C44.127 14.1925 44.3197 14.3913 44.6282 14.8503C44.9453 15.3221 45.3122 15.9559 45.8579 16.901C46.4035 17.8461 46.769 18.4808 47.0191 18.9913C47.2622 19.4878 47.3381 19.7542 47.363 19.944C47.4623 20.6972 47.2581 21.459 46.7956 22.0617C46.6497 22.2519 46.3889 22.4903 45.6952 22.926C44.1568 23.8928 43.1113 25.5786 43.1111 27.4997C43.1111 29.421 44.1565 31.107 45.6952 32.0739C46.3886 32.5095 46.6494 32.7478 46.7954 32.938C47.2579 33.5408 47.462 34.3025 47.3628 35.0558C47.3378 35.2455 47.262 35.5118 47.0188 36.0084C46.7688 36.5188 46.4033 37.1536 45.8576 38.0986C45.312 39.0437 44.9451 39.6776 44.6279 40.1495C44.3195 40.6082 44.1268 40.8072 43.9748 40.9236C43.3721 41.3863 42.6104 41.5902 41.8571 41.4912C41.6197 41.4598 41.2826 41.353 40.5586 40.9706C38.9522 40.1213 36.9692 40.0589 35.3052 41.0196C33.6417 41.9803 32.7044 43.7286 32.6366 45.5445C32.6059 46.3629 32.53 46.708 32.4381 46.9296C32.1475 47.6313 31.5897 48.1891 30.8878 48.4799C30.7111 48.553 30.4425 48.6206 29.8907 48.6582C29.3237 48.6969 28.5913 48.6978 27.5 48.6978C26.4087 48.6978 25.6763 48.6969 25.1091 48.6582C24.5575 48.6206 24.2889 48.553 24.112 48.4799C23.4103 48.1891 22.8525 47.6313 22.5618 46.9296C22.4701 46.708 22.3941 46.3629 22.3635 45.5445C22.2956 43.7288 21.3583 41.9803 19.6944 41.0196C18.0305 40.0589 16.0477 40.1215 14.4411 40.9706C13.7171 41.3533 13.3802 41.4601 13.1426 41.4912C12.3894 41.5905 11.6276 41.3863 11.0249 40.9238C10.873 40.8074 10.6802 40.6085 10.3718 40.1495C10.0547 39.6778 9.68772 39.044 9.14208 38.0989C8.59641 37.1538 8.23103 36.519 7.98098 36.0086C7.73774 35.512 7.66194 35.2455 7.63696 35.0558C7.5378 34.3025 7.74191 33.5408 8.20442 32.938C8.35031 32.7481 8.61121 32.5095 9.30465 32.0739C10.8432 31.1072 11.8888 29.4213 11.8889 27.5001C11.889 25.5786 10.8434 23.8926 9.30467 22.9258C8.6114 22.4901 8.35051 22.2517 8.20463 22.0616C7.74214 21.4589 7.53803 20.6971 7.63719 19.9438C7.66216 19.7541 7.73797 19.4877 7.98121 18.9911C8.23125 18.4806 8.59664 17.8459 9.14228 16.9008C9.68795 15.9557 10.0549 15.3219 10.372 14.8501C10.6804 14.3912 10.8732 14.1923 11.0251 14.0758C11.6278 13.6133 12.3896 13.4092 13.1428 13.5084C13.3804 13.5397 13.7174 13.6464 14.4415 14.0291C16.0479 14.8782 18.0306 14.9407 19.6945 13.9801C21.3583 13.0195 22.2956 11.2712 22.3635 9.45538C22.3941 8.63696 22.4701 8.29179 22.5618 8.07037C22.8525 7.36845 23.4103 6.8108 24.112 6.52005Z" fill="#9F9F9F"/>
</svg>
