<svg width="250" height="250" viewBox="0 0 250 250" fill="none" xmlns="http://www.w3.org/2000/svg">
<path d="M73 25C60.625 25 51.5781 26.5938 45.375 32C39.1719 37.4063 37 45.9219 37 57V73H33C28.625 73 25 76.625 25 81V113C25 117.375 28.625 121 33 121H37V189C37 193.891 38.5313 198 41 201.125V213C41 219.578 46.4219 225 53 225H69C75.5781 225 81 219.578 81 213V209H169V213C169 219.578 174.422 225 181 225H197C203.578 225 209 219.578 209 213V201.125C211.469 198 213 193.891 213 189V121H217C221.375 121 225 117.375 225 113V81C225 76.625 221.375 73 217 73H213V61C213 50.4219 212.156 41.7656 207.875 35.125C203.594 28.4844 195.75 25 185 25H73ZM73 33H185C194.25 33 198.406 35.1719 201.125 39.375C203.844 43.5781 205 50.9375 205 61V189C205 194.547 203.406 196.734 200.125 198.5C196.844 200.266 191.344 201 185 201H65C58.6562 201 53.1563 200.266 49.875 198.5C46.5938 196.734 45 194.547 45 189V57C45 46.9375 46.8281 41.4375 50.625 38.125C54.4219 34.8125 61.375 33 73 33ZM85 37C80.625 37 77 40.625 77 45V53C77 57.375 80.625 61 85 61H169C173.375 61 177 57.375 177 53V45C177 40.625 173.375 37 169 37H85ZM85 45H169V53H85V45ZM69 65C64.3281 65 60.0625 66.1875 57.125 69.125C54.1875 72.0625 53 76.3281 53 81V129C53 133.672 54.1875 137.938 57.125 140.875C60.0625 143.812 64.3281 145 69 145L181 144.75C184.266 144.75 187.781 143.5 191 141C194.219 138.5 197 134.297 197 129V81C197 76.3281 195.812 72.0625 192.875 69.125C189.938 66.1875 185.672 65 181 65H69ZM69 73H181C184.328 73 186.062 73.8125 187.125 74.875C188.188 75.9375 189 77.6719 189 81V129C189 131.703 187.859 133.281 186.125 134.625C184.391 135.969 181.922 136.75 181 136.75L69 137C65.6719 137 63.9375 136.188 62.875 135.125C61.8125 134.062 61 132.328 61 129V81C61 77.6719 61.8125 75.9375 62.875 74.875C63.9375 73.8125 65.6719 73 69 73ZM33 81H37V113H33V81ZM213 81H217V113H213V81ZM71 157C61.1094 157 53 165.109 53 175C53 184.891 61.1094 193 71 193C80.8906 193 89 184.891 89 175C89 165.109 80.8906 157 71 157ZM179 157C169.109 157 161 165.109 161 175C161 184.891 169.109 193 179 193C188.891 193 197 184.891 197 175C197 165.109 188.891 157 179 157ZM71 165C76.5625 165 81 169.438 81 175C81 180.562 76.5625 185 71 185C65.4375 185 61 180.562 61 175C61 169.438 65.4375 165 71 165ZM179 165C184.562 165 189 169.438 189 175C189 180.562 184.562 185 179 185C173.438 185 169 180.562 169 175C169 169.438 173.438 165 179 165ZM49 206.75C53.7969 208.562 59.2656 209 65 209H73V213C73 215.25 71.25 217 69 217H53C50.75 217 49 215.25 49 213V206.75ZM201 206.75V213C201 215.25 199.25 217 197 217H181C178.75 217 177 215.25 177 213V209H185C190.734 209 196.203 208.562 201 206.75Z" fill="#6f808d"/>
</svg>
