<svg width="38" height="56" viewBox="0 0 38 56" fill="none" xmlns="http://www.w3.org/2000/svg">
<path fill-rule="evenodd" clip-rule="evenodd" d="M8.33333 9.33338H13.6667V46.6667H8.33333C5.38781 46.6667 3 44.2789 3 41.3334V14.6667C3 11.7212 5.38781 9.33338 8.33333 9.33338ZM20.8727 4.03562L31.5393 8.03562C33.6209 8.81623 35 10.8062 35 13.0294V42.9707C35 45.1939 33.6209 47.1839 31.5393 47.9645L20.8727 51.9645C18.1147 52.9987 15.0405 51.6013 14.0062 48.8434C13.7817 48.2445 13.6667 47.6102 13.6667 46.9707V9.02938C13.6667 6.08386 16.0545 3.69604 19 3.69604C19.6395 3.69604 20.2738 3.81107 20.8727 4.03562Z" stroke="#fff" stroke-width="4" stroke-linecap="round" stroke-linejoin="round"/>
<path d="M19 30.6668C20.4727 30.6668 21.6666 29.4729 21.6666 28.0002C21.6666 26.5274 20.4727 25.3335 19 25.3335C17.5272 25.3335 16.3333 26.5274 16.3333 28.0002C16.3333 29.4729 17.5272 30.6668 19 30.6668Z" fill="#fff"/>
</svg>
