<svg width="23" height="16" viewBox="0 0 23 16" fill="none" xmlns="http://www.w3.org/2000/svg">
<path fill-rule="evenodd" clip-rule="evenodd" d="M16.3119 0.890233C14.8628 0.297189 13.259 0 11.5 0C6.4302 0 2.65292 2.46626 0.15232 7.36932C0.05202 7.56691 0 7.78271 0 8.00123C0 8.21974 0.05202 8.43554 0.15232 8.63313C1.16431 10.6164 2.38584 12.201 3.81742 13.3847L7.25142 9.95073C6.93201 9.36478 6.75201 8.70194 6.75201 8C6.75201 5.61472 8.83057 3.68098 11.3945 3.68098C12.03 3.68098 12.6357 3.79979 13.1873 4.01483L16.3119 0.890233ZM15.61 6.1883L19.1828 2.61548C20.6143 3.79921 21.8358 5.38371 22.8477 7.36687C23.0508 7.77178 23.0508 8.23313 22.8477 8.63068C20.3471 13.5337 16.5698 16 11.5 16C9.74116 16 8.13741 15.7029 6.68842 15.1099L9.75602 12.0423C10.2655 12.2211 10.8177 12.319 11.3945 12.319C13.9584 12.319 16.037 10.3853 16.037 8C16.037 7.35302 15.8841 6.73926 15.61 6.1883ZM11.9087 5.29347C11.7401 5.26574 11.5681 5.25153 11.3945 5.25153C10.611 5.25153 9.85952 5.5411 9.30548 6.05654C8.75144 6.57198 8.44018 7.27106 8.44018 8C8.44018 8.2286 8.47079 8.45426 8.5299 8.67225L11.9087 5.29347ZM11.0668 10.7315L14.2993 7.49901C14.332 7.66312 14.3488 7.83075 14.3488 8C14.3488 8.72894 14.0375 9.42802 13.4835 9.94346C12.9295 10.4589 12.178 10.7485 11.3945 10.7485C11.2845 10.7485 11.1751 10.7428 11.0668 10.7315Z" fill="#A8AAAE"/>
</svg>
