<svg width="250" height="250" viewBox="0 0 250 250" fill="none" xmlns="http://www.w3.org/2000/svg">
<path d="M208.333 104.167V72.9167C208.333 61.4107 199.006 52.0833 187.5 52.0833H62.5C50.994 52.0833 41.6666 61.4107 41.6666 72.9167V104.167M208.333 104.167V197.917C208.333 209.423 199.006 218.75 187.5 218.75H62.5C50.994 218.75 41.6666 209.423 41.6666 197.917V104.167M208.333 104.167H41.6666M83.3333 31.25V72.9167M166.667 31.25V72.9167" stroke="#6F808D" stroke-width="10" stroke-linecap="round"/>
<path d="M88.5417 125H67.7083C64.8319 125 62.5 127.332 62.5 130.208V151.042C62.5 153.918 64.8319 156.25 67.7083 156.25H88.5417C91.4181 156.25 93.75 153.918 93.75 151.042V130.208C93.75 127.332 91.4181 125 88.5417 125Z" fill="#6F808D"/>
<path d="M135.417 125H114.583C111.707 125 109.375 127.332 109.375 130.208V151.042C109.375 153.918 111.707 156.25 114.583 156.25H135.417C138.293 156.25 140.625 153.918 140.625 151.042V130.208C140.625 127.332 138.293 125 135.417 125Z" fill="#6F808D"/>
<path d="M182.292 125H161.458C158.582 125 156.25 127.332 156.25 130.208V151.042C156.25 153.918 158.582 156.25 161.458 156.25H182.292C185.168 156.25 187.5 153.918 187.5 151.042V130.208C187.5 127.332 185.168 125 182.292 125Z" fill="#6F808D"/>
</svg>
