<svg width="207" height="207" xmlns="http://www.w3.org/2000/svg">
 <g>
  <title>Layer 1</title>
  <g id="svg_2">
   <path fill="#ffffff" stroke="#ffffff" opacity="undefined" d="m103.49999,206.99998c-57.18231,0 -103.49999,-46.31768 -103.49999,-103.49999c0,-57.18231 46.31768,-103.49999 103.49999,-103.49999c57.18231,0 103.49999,46.31768 103.49999,103.49999c0,57.18231 -46.31768,103.49999 -103.49999,103.49999z" id="svg_29"/>
   <path fill="#CE7975" stroke="#CE7975" opacity="undefined" d="m103.49999,198.49997c-52.48619,0 -95,-42.51381 -95,-95c0,-52.48619 42.51381,-95 95,-95c52.48619,0 95,42.51381 95,95c0,52.48619 -42.51381,95 -95,95z" id="svg_20"/>
   <path fill="#ffffff" opacity="undefined" d="m103.49998,185.99999c-45.58011,0 -82.5,-36.91989 -82.5,-82.5c0,-45.58011 36.91989,-82.5 82.5,-82.5c45.58011,0 82.5,36.91989 82.5,82.5c0,45.58011 -36.91989,82.5 -82.5,82.5z" id="svg_3"/>
   <path fill="#426373" d="m92.99997,106l10.50001,-45.88889l10.50001,45.88889l-21.00002,0z" id="svg_21" opacity="undefined" stroke="null"/>
   <path fill="#426373" opacity="undefined" d="m103.49998,185.56468c-45.58011,0 -82.49999,-36.91988 -82.49999,-82.49999c0,-45.58011 36.91988,2.5 82.49999,2.5c45.58011,0 82.5,-48.08011 82.5,-2.5c0,45.58011 -36.91989,82.49999 -82.5,82.49999z" id="svg_28" stroke="#426373"/>
   <path fill="#CE7975" d="m93.49997,147l10.00001,-40.74074l10.00001,40.74074l-20.00002,0z" id="svg_22" stroke="#CE7975" transform="rotate(180 103.5 126.63)"/>
   <text fill="#426373" x="88.49999" y="54.16666" id="svg_24" font-size="40" font-family="'Caveat'" text-anchor="start" xml:space="preserve" opacity="undefined" stroke="#426373">N</text>
   <text fill="#CE7975" x="89.8333" y="176.16666" id="svg_25" font-size="40" font-family="'Caveat'" text-anchor="start" xml:space="preserve" stroke="#CE7975">S</text>
  </g>
 </g>

</svg>