<svg width="23" height="16" viewBox="0 0 23 16" fill="none" xmlns="http://www.w3.org/2000/svg">
<path id="Vector" d="M8.44018 8C8.44018 8.72894 8.75144 9.42802 9.30548 9.94346C9.85952 10.4589 10.611 10.7485 11.3945 10.7485C12.178 10.7485 12.9295 10.4589 13.4835 9.94346C14.0375 9.42802 14.3488 8.72894 14.3488 8C14.3488 7.27106 14.0375 6.57198 13.4835 6.05654C12.9295 5.5411 12.178 5.25153 11.3945 5.25153C10.611 5.25153 9.85952 5.5411 9.30548 6.05654C8.75144 6.57198 8.44018 7.27106 8.44018 8ZM22.8477 7.36687C20.3471 2.46626 16.5671 0 11.5 0C6.4302 0 2.65292 2.46626 0.152319 7.36932C0.0520185 7.56691 0 7.78271 0 8.00123C0 8.21974 0.0520185 8.43554 0.152319 8.63313C2.65292 13.5337 6.43284 16 11.5 16C16.5698 16 20.3471 13.5337 22.8477 8.63068C23.0508 8.23313 23.0508 7.77178 22.8477 7.36687ZM11.3945 12.319C8.83057 12.319 6.75201 10.3853 6.75201 8C6.75201 5.61472 8.83057 3.68098 11.3945 3.68098C13.9584 3.68098 16.037 5.61472 16.037 8C16.037 10.3853 13.9584 12.319 11.3945 12.319Z" fill="#A8AAAE"/>
</svg>
