<svg width="24" height="24" viewBox="0 0 24 24" fill="none" xmlns="http://www.w3.org/2000/svg">
<g clip-path="url(#clip0_732_819)">
<path d="M2.62207 8.9362C1.40007 7.02399 2.04451 4.82707 3.46092 3.41066L4.97116 1.90043C6.14273 0.728855 8.04222 0.728852 9.2138 1.90043L11.1946 3.88119C12.0764 4.76302 12.2573 6.12666 11.6359 7.20791C11.2667 7.85034 11.3741 8.66055 11.8981 9.1845L15.2506 12.537C15.7746 13.061 16.5848 13.1685 17.2272 12.7992C18.3085 12.1778 19.6721 12.3587 20.5539 13.2406L22.5347 15.2213C23.7063 16.3929 23.7063 18.2924 22.5347 19.464L21.0244 20.9742C19.608 22.3906 17.4111 23.035 15.4989 21.813C13.9188 20.8033 11.6162 19.0307 8.51028 15.9248C5.40438 12.8189 3.63183 10.5163 2.62207 8.9362ZM4.87513 4.82488C3.9252 5.77481 3.7273 6.95156 4.30734 7.85923C5.22221 9.29082 6.89583 11.482 9.92449 14.5106C12.9532 17.5393 15.1443 19.2129 16.5759 20.1278C17.4835 20.7078 18.6603 20.5099 19.6102 19.56L21.1205 18.0497C21.511 17.6592 21.511 17.0261 21.1205 16.6355L19.1397 14.6548C18.8969 14.412 18.5215 14.3622 18.2238 14.5333C16.7978 15.3528 14.9994 15.1142 13.8364 13.9512L10.4839 10.5987C9.32088 9.43572 9.08231 7.63732 9.90185 6.21133C10.0729 5.91364 10.0231 5.53819 9.78035 5.2954L7.79958 3.31464C7.40906 2.92412 6.77589 2.92412 6.38537 3.31464L4.87513 4.82488Z" fill="black"/>
</g>
<defs>
<clipPath id="clip0_732_819">
<rect width="24" height="24" fill="white"/>
</clipPath>
</defs>
</svg>
