<svg width="250" height="250" viewBox="0 0 250 250" fill="none" xmlns="http://www.w3.org/2000/svg">
<path fill-rule="evenodd" clip-rule="evenodd" d="M78.4109 203.125H119.792V161.744C98.0645 164.146 80.8129 181.398 78.4109 203.125ZM130.208 161.744V203.125H171.589C169.187 181.398 151.935 164.146 130.208 161.744ZM171.589 213.542C170.862 220.129 168.771 226.297 165.607 231.767L174.624 236.983C179.501 228.551 182.292 218.76 182.292 208.333C182.292 176.692 156.641 151.042 125 151.042C93.3588 151.042 67.7083 176.692 67.7083 208.333C67.7083 218.76 70.4984 228.551 75.376 236.983L84.3926 231.767C81.2286 226.297 79.1379 220.129 78.4103 213.542H171.589Z" fill="#6f808d"/>
<path d="M140.625 208.333C140.625 216.963 133.63 223.958 125 223.958C116.37 223.958 109.375 216.963 109.375 208.333C109.375 199.704 116.37 192.708 125 192.708C133.63 192.708 140.625 199.704 140.625 208.333Z" fill="#6f808d"/>
<path d="M164.503 191.901C163.014 186.344 166.312 180.632 171.869 179.143L181.931 176.447C187.487 174.958 193.199 178.256 194.688 183.813L200.08 203.936C201.569 209.493 198.271 215.205 192.715 216.694L182.653 219.39C177.096 220.879 171.384 217.581 169.895 212.024L164.503 191.901Z" fill="#6f808d"/>
<path d="M55.312 183.808C56.801 178.252 62.5125 174.954 68.0698 176.443L78.1312 179.139C83.688 180.628 86.9859 186.34 85.4969 191.896L80.1052 212.02C78.6161 217.577 72.9042 220.875 67.3474 219.386L57.2854 216.69C51.7285 215.201 48.4308 209.489 49.9198 203.932L55.312 183.808Z" fill="#6f808d"/>
<path fill-rule="evenodd" clip-rule="evenodd" d="M78.125 88.5417V72.9167H88.5417V88.5417C88.5417 108.677 104.865 125 125 125C145.135 125 161.458 108.677 161.458 88.5417V72.9167H171.875V88.5417C171.875 114.43 150.889 135.417 125 135.417C99.1115 135.417 78.125 114.43 78.125 88.5417Z" fill="#6f808d"/>
<path fill-rule="evenodd" clip-rule="evenodd" d="M71.8452 57.2916H178.382C178.757 56.3358 179.161 55.2093 179.563 53.9197L179.626 53.7181C181.031 49.2218 182.292 45.1872 182.292 36.9623C182.292 32.7914 179.582 29.2794 175.995 26.5024C172.36 23.6889 167.397 21.2801 161.868 19.3166C150.796 15.3844 136.833 13.0208 125 13.0208C113.167 13.0208 99.2036 15.3844 88.1317 19.3166C82.603 21.2801 77.6395 23.6889 74.0051 26.5024C70.4181 29.2794 67.7083 32.7914 67.7083 36.9623C67.7083 44.598 68.9853 48.6223 70.2973 52.7577C70.4197 53.1431 70.5421 53.5291 70.664 53.9192C71.0666 55.2088 71.4708 56.3353 71.8452 57.2916ZM104.167 41.6666C104.167 38.7901 106.498 36.4582 109.375 36.4582H140.625C143.501 36.4582 145.833 38.7901 145.833 41.6666C145.833 44.543 143.501 46.8749 140.625 46.8749H109.375C106.498 46.8749 104.167 44.543 104.167 41.6666Z" fill="#6f808d"/>
<path fill-rule="evenodd" clip-rule="evenodd" d="M73.0281 69.8468C73.2645 68.6083 74.3984 67.7083 75.7218 67.7083H174.278C175.602 67.7083 176.735 68.6083 176.972 69.8468L176.973 69.853L176.974 69.8593L176.977 69.8744L176.983 69.9098L176.998 70.0046C177.009 70.078 177.022 70.1723 177.034 70.2853C177.058 70.5119 177.08 70.8161 177.083 71.1864C177.089 71.9275 177.021 72.9416 176.74 74.1359C176.172 76.5499 174.757 79.6187 171.515 82.601C165.087 88.5135 151.881 93.7499 125 93.7499C98.1187 93.7499 84.913 88.5135 78.4854 82.601C75.2432 79.6187 73.8275 76.5499 73.2598 74.1359C72.9791 72.9416 72.9109 71.9275 72.9171 71.1864C72.9203 70.8161 72.9421 70.5119 72.9661 70.2853C72.9781 70.1723 72.9906 70.078 73.0015 70.0046L73.0166 69.9098L73.0229 69.8744L73.0255 69.8593L73.027 69.853L73.0281 69.8468Z" fill="#6f808d"/>
</svg>
