<svg width="250" height="250" viewBox="0 0 250 250" fill="none" xmlns="http://www.w3.org/2000/svg">
<path d="M132.003 171.099V182.2C132.003 183.08 131.829 183.95 131.492 184.763C131.156 185.576 130.662 186.316 130.04 186.938C129.418 187.561 128.679 188.052 127.867 188.389C127.054 188.725 126.182 188.899 125.302 188.899C124.423 188.899 123.551 188.725 122.738 188.389C121.925 188.052 121.187 187.561 120.565 186.938C119.943 186.316 119.449 185.576 119.113 184.763C118.776 183.95 118.602 183.08 118.602 182.2V170.801C114.165 170.072 109.917 168.468 106.106 166.082C102.294 163.695 98.9958 160.573 96.4023 156.899C95.4577 155.7 94.9311 154.226 94.9023 152.7C94.9148 151.842 95.0997 150.995 95.4459 150.21C95.792 149.425 96.2927 148.718 96.9177 148.13C97.5428 147.542 98.2794 147.087 99.0842 146.79C99.889 146.492 100.746 146.359 101.603 146.399C102.45 146.401 103.288 146.582 104.063 146.926C104.838 147.271 105.532 147.773 106.102 148.401C109.326 152.576 113.657 155.763 118.602 157.6V132.1C105.302 126.9 98.6024 119.099 98.6024 108.999C98.8028 103.592 100.928 98.4343 104.595 94.4556C108.262 90.4769 113.229 87.9397 118.602 87.2998V76.2988C118.602 75.419 118.776 74.5482 119.113 73.7354C119.449 72.9225 119.943 72.1847 120.565 71.5625C121.187 70.9403 121.925 70.4466 122.738 70.1099C123.551 69.7732 124.423 69.5996 125.302 69.5996C126.182 69.5996 127.054 69.7732 127.867 70.1099C128.679 70.4466 129.418 70.9403 130.04 71.5625C130.662 72.1847 131.156 72.9225 131.492 73.7354C131.829 74.5482 132.003 75.419 132.003 76.2988V87.1997C135.724 87.7828 139.289 89.1103 142.485 91.1035C145.681 93.0967 148.442 95.7137 150.602 98.7988C151.555 99.9235 152.117 101.329 152.202 102.8C152.229 103.662 152.084 104.519 151.776 105.325C151.467 106.13 151.002 106.867 150.406 107.49C149.81 108.114 149.096 108.613 148.306 108.958C147.516 109.303 146.665 109.487 145.802 109.5C144.9 109.475 144.013 109.257 143.202 108.86C142.391 108.463 141.675 107.897 141.102 107.2C138.718 104.221 135.575 101.942 132.003 100.601V123.101L134.503 124.099C147.203 129.099 155.103 136.3 155.103 147.7C154.954 153.808 152.481 159.629 148.189 163.977C143.897 168.325 138.108 170.871 132.003 171.099ZM118.602 117.3V100.999C116.988 101.584 115.599 102.662 114.63 104.08C113.662 105.497 113.162 107.183 113.203 108.899C113.173 110.676 113.669 112.424 114.63 113.918C115.591 115.413 116.973 116.589 118.602 117.3ZM140.502 148C140.502 143.2 137.203 140.3 132.003 138V158C134.387 157.639 136.561 156.427 138.123 154.59C139.685 152.752 140.53 150.412 140.502 148Z" fill="#6F808D"/>
<path d="M185 39.6997H65C54.3913 39.6997 44.2172 43.9146 36.7157 51.416C29.2142 58.9175 25 69.091 25 79.6997V179.7C25 190.308 29.2142 200.482 36.7157 207.983C44.2172 215.485 54.3913 219.7 65 219.7H185C195.609 219.7 205.783 215.485 213.284 207.983C220.786 200.482 225 190.308 225 179.7V79.6997C225 69.091 220.786 58.9175 213.284 51.416C205.783 43.9146 195.609 39.6997 185 39.6997Z" stroke="#6F808D" stroke-width="10" stroke-linecap="round" stroke-linejoin="round"/>
</svg>
