<svg width="173" height="173" viewBox="0 0 173 173" fill="none" xmlns="http://www.w3.org/2000/svg">
<path d="M100.668 79.4158C100.668 75.5033 104.007 72.3318 108.125 72.3318C112.244 72.3318 115.582 75.5033 115.582 79.4158V93.5839C115.582 97.4965 112.244 100.668 108.125 100.668C104.007 100.668 100.668 97.4965 100.668 93.5839V79.4158Z" stroke="#6f808d" stroke-width="10"/>
<path d="M101.015 122.542L106.422 122.557V122.542H101.015ZM101.015 50.4583H106.422V50.4425L101.015 50.4583ZM106.38 136.995L106.422 122.557L95.6091 122.526L95.5673 136.963L106.38 136.995ZM108.242 120.739C109.26 120.739 110.062 121.559 110.062 122.542H120.874C120.874 115.562 115.206 109.927 108.242 109.927V120.739ZM108.242 109.927C101.278 109.927 95.6091 115.562 95.6091 122.542H106.422C106.422 121.559 107.224 120.739 108.242 120.739V109.927ZM72.0474 34.2395H97.3499V23.427H72.0474V34.2395ZM93.7652 138.76H72.0474V149.573H93.7652V138.76ZM72.0474 138.76C58.2689 138.76 48.4775 138.749 41.0492 137.753C33.7749 136.777 29.5818 134.947 26.5212 131.894L18.8851 139.549C24.2906 144.941 31.1436 147.333 39.6119 148.469C47.9261 149.584 58.5738 149.573 72.0474 149.573V138.76ZM72.0474 23.427C58.5738 23.427 47.9261 23.4155 39.6119 24.5306C31.1436 25.6663 24.2906 28.0587 18.8851 33.4508L26.5212 41.1059C29.5818 38.0529 33.7749 36.2227 41.0492 35.2472C48.4775 34.251 58.2689 34.2395 72.0474 34.2395V23.427ZM18.6509 78.632C21.4311 80.1847 23.2834 83.1336 23.2834 86.4999H34.0959C34.0959 79.0494 29.9765 72.572 23.9227 69.1916L18.6509 78.632ZM19.8944 65.0261C20.4568 51.6472 22.2842 45.3323 26.5212 41.1059L18.8851 33.4508C11.4638 40.8537 9.65998 51.0483 9.09139 64.5719L19.8944 65.0261ZM23.2834 86.4999C23.2834 89.8662 21.4311 92.8151 18.6509 94.3678L23.9227 103.809C29.9765 100.428 34.0959 93.9505 34.0959 86.4999H23.2834ZM9.09139 108.428C9.65998 121.952 11.4638 132.146 18.8851 139.549L26.5212 131.894C22.2842 127.667 20.4568 121.353 19.8944 107.974L9.09139 108.428ZM149.716 86.4999C149.716 83.1336 151.569 80.1847 154.349 78.632L149.077 69.1916C143.023 72.572 138.904 79.0494 138.904 86.4999H149.716ZM163.909 64.5719C163.34 51.0483 161.536 40.8537 154.115 33.4508L146.478 41.1059C150.715 45.3323 152.543 51.6472 153.106 65.0261L163.909 64.5719ZM154.349 94.3678C151.569 92.8151 149.716 89.8662 149.716 86.4999H138.904C138.904 93.9505 143.023 100.428 149.077 103.809L154.349 94.3678ZM153.106 107.974C152.543 121.353 150.715 127.667 146.478 131.894L154.115 139.549C161.536 132.146 163.34 121.952 163.909 108.428L153.106 107.974ZM149.077 103.809C151.124 104.951 152.461 105.7 153.365 106.27C153.811 106.551 154.008 106.701 154.067 106.75C154.172 106.837 153.808 106.572 153.46 105.95L162.895 100.669C162.298 99.6025 161.498 98.8651 160.965 98.4239C160.388 97.9453 159.746 97.5114 159.134 97.1257C157.925 96.3631 156.279 95.4462 154.349 94.3678L149.077 103.809ZM163.909 108.428C163.961 107.192 164.019 105.917 163.972 104.851C163.925 103.77 163.757 102.21 162.895 100.669L153.46 105.95C153.095 105.299 153.149 104.85 153.17 105.326C153.179 105.533 153.181 105.834 153.168 106.297C153.157 106.758 153.134 107.294 153.106 107.974L163.909 108.428ZM154.349 78.632C156.279 77.5537 157.925 76.6368 159.134 75.8741C159.746 75.4885 160.388 75.0545 160.965 74.5759C161.498 74.1347 162.298 73.3973 162.895 72.3312L153.46 67.0495C153.808 66.4278 154.172 66.1631 154.067 66.2497C154.008 66.299 153.811 66.4486 153.365 66.7293C152.461 67.2996 151.124 68.0486 149.077 69.1916L154.349 78.632ZM153.106 65.0261C153.134 65.7059 153.157 66.2417 153.168 66.7027C153.181 67.1657 153.179 67.4673 153.17 67.6737C153.149 68.1495 153.095 67.7009 153.46 67.0495L162.895 72.3312C163.757 70.7896 163.925 69.2293 163.972 68.1489C164.019 67.0831 163.961 65.808 163.909 64.5719L153.106 65.0261ZM18.6509 94.3678C16.7203 95.4462 15.0747 96.3631 13.8658 97.1257C13.2541 97.5114 12.6124 97.9453 12.0348 98.4239C11.502 98.8651 10.7024 99.6025 10.1053 100.669L19.5402 105.95C19.1921 106.572 18.828 106.837 18.9325 106.75C18.992 106.701 19.1896 106.551 19.6345 106.27C20.5386 105.7 21.8759 104.951 23.9227 103.809L18.6509 94.3678ZM19.8944 107.974C19.8658 107.294 19.8434 106.758 19.8315 106.297C19.8195 105.834 19.8209 105.533 19.83 105.326C19.8509 104.85 19.9048 105.299 19.5402 105.95L10.1053 100.669C9.24254 102.21 9.07545 103.77 9.02795 104.851C8.98103 105.917 9.03941 107.192 9.09139 108.428L19.8944 107.974ZM23.9227 69.1916C21.8759 68.0486 20.5386 67.2996 19.6344 66.7293C19.1895 66.4486 18.992 66.299 18.9325 66.2497C18.828 66.1631 19.1922 66.4278 19.5402 67.0495L10.1053 72.3312C10.7024 73.3973 11.5019 74.1347 12.0347 74.5759C12.6124 75.0545 13.2541 75.4885 13.8657 75.8741C15.0747 76.6368 16.7203 77.5537 18.6509 78.632L23.9227 69.1916ZM9.09139 64.5719C9.03941 65.808 8.98103 67.0831 9.02795 68.1489C9.07545 69.2293 9.24254 70.7896 10.1053 72.3312L19.5402 67.0495C19.9049 67.701 19.8509 68.1495 19.83 67.6737C19.8209 67.4673 19.8195 67.1657 19.8315 66.7027C19.8434 66.2417 19.8658 65.7059 19.8944 65.0261L9.09139 64.5719ZM106.422 50.4425L106.369 32.4113L95.5565 32.4427L95.6091 50.474L106.422 50.4425ZM108.242 52.2603C107.224 52.2603 106.422 51.4408 106.422 50.4583H95.6091C95.6091 57.4378 101.278 63.0728 108.242 63.0728V52.2603ZM110.062 50.4583C110.062 51.4408 109.26 52.2603 108.242 52.2603V63.0728C115.206 63.0728 120.874 57.4378 120.874 50.4583H110.062ZM110.062 32.5541V50.4583H120.874V32.5541H110.062ZM118.998 34.3739C134.771 34.7808 141.843 36.483 146.478 41.1059L154.115 33.4508C146.096 25.4514 134.752 23.9642 119.277 23.565L118.998 34.3739ZM120.874 32.5541C120.874 33.5619 120.043 34.4009 118.998 34.3739L119.277 23.565C114.201 23.4341 110.062 27.5239 110.062 32.5541H120.874ZM97.3499 34.2395C96.3739 34.2395 95.5594 33.4485 95.5565 32.4427L106.369 32.4113C106.355 27.4326 102.309 23.427 97.3499 23.427V34.2395ZM123.012 149.31C136.525 148.739 146.711 146.935 154.115 139.549L146.478 131.894C142.246 136.116 135.922 137.942 122.556 138.507L123.012 149.31ZM110.062 122.542V136.789H120.874V122.542H110.062ZM95.5673 136.963C95.5644 137.83 95.5623 138.498 95.5464 139.067C95.5305 139.64 95.5032 139.98 95.4743 140.188C95.4462 140.392 95.4354 140.324 95.5197 140.121C95.6214 139.874 95.8066 139.565 96.0863 139.287L103.721 146.943C105.419 145.249 105.97 143.236 106.187 141.659C106.382 140.237 106.375 138.537 106.38 136.995L95.5673 136.963ZM93.7652 149.573C95.3071 149.573 97.0068 149.584 98.429 149.393C100.008 149.181 102.022 148.636 103.721 146.943L96.0863 139.287C96.366 139.008 96.6752 138.823 96.9218 138.722C97.1257 138.639 97.1942 138.649 96.9902 138.677C96.7819 138.705 96.4417 138.731 95.8693 138.746C95.2999 138.76 94.6324 138.76 93.7652 138.76V149.573ZM122.556 138.507C121.685 138.543 121.02 138.571 120.452 138.58C119.882 138.589 119.549 138.576 119.352 138.556C119.16 138.538 119.245 138.526 119.467 138.61C119.733 138.712 120.045 138.894 120.319 139.157L112.836 146.962C114.597 148.649 116.652 149.155 118.294 149.317C119.75 149.46 121.473 149.375 123.012 149.31L122.556 138.507ZM110.062 136.789C110.062 138.366 110.05 140.111 110.251 141.569C110.477 143.197 111.059 145.258 112.836 146.962L120.319 139.157C120.605 139.431 120.8 139.743 120.91 140.001C121.001 140.214 120.99 140.29 120.962 140.084C120.933 139.875 120.905 139.529 120.889 138.943C120.874 138.36 120.874 137.677 120.874 136.789H110.062Z" fill="#6f808d"/>
</svg>
